<?xml version="1.0" encoding="UTF-8"?>
<svg xmlns="http://www.w3.org/2000/svg" xmlns:xlink="http://www.w3.org/1999/xlink" viewBox="0 0 24 24" width="24px" height="24px">
<g id="surface153102126">
<path style=" stroke:none;fill-rule:nonzero;fill:rgb(100%,100%,100%);fill-opacity:1;" d="M 12 3.199219 C 8.652344 3.199219 4.304688 4.039062 4.304688 4.039062 L 4.292969 4.050781 C 2.769531 4.296875 1.601562 5.605469 1.601562 7.199219 L 1.601562 16.800781 C 1.601562 18.375 2.75 19.710938 4.300781 19.957031 L 4.304688 19.960938 C 4.304688 19.960938 8.652344 20.800781 12 20.800781 C 15.347656 20.800781 19.695312 19.960938 19.695312 19.960938 C 21.253906 19.714844 22.398438 18.375 22.398438 16.800781 L 22.398438 7.199219 C 22.398438 5.628906 21.253906 4.289062 19.699219 4.042969 L 19.695312 4.039062 C 19.695312 4.039062 15.347656 3.199219 12 3.199219 Z M 9.601562 8.320312 L 16 12 L 9.601562 15.679688 Z M 9.601562 8.320312 "/>
</g>
</svg>
